# xmcd
#
# Track frame offsets: 
#        150
#        14284
#        22859
#        42324
#        54545
#        67248
#        78533
#        81852
#        100439
#        101910
#        106770
#        112748
#        126048
#        137263
#        150046
#
# Disc length: 2131 seconds
#
# Revision: 0
# Processed by: cddbd v1.5.2PL0 Copyright (c) Steve Scherf et al.
# Submitted via: ExactAudioCopy v0.99pb4
#
DISCID=b108510f
DTITLE=Adrian Younge - Black Dynamite
DYEAR=2009
DGENRE=Soundtrack
TTITLE0=Black Dynamite Theme
TTITLE1=Cleaning Up The Streets
TTITLE2=Man With The Heat (Superbad)
TTITLE3=Shine
TTITLE4=Jimmy's Dead
TTITLE5=Shot Me In The Heart
TTITLE6=Black They Back
TTITLE7=Gloria (Zodiac Lovers)
TTITLE8=Anaconda Malt Liquor
TTITLE9=Jimmy's Apartment
TTITLE10=Jimmy's Dead (Interlude)
TTITLE11=Chicago Wind
TTITLE12=Rafelli Chase
TTITLE13=Jimmy's Dead (Instrumental)
TTITLE14=Dynomite (Suckapunch Re-edit)
EXTD=
EXTT0=
EXTT1=
EXTT2=
EXTT3=
EXTT4=
EXTT5=
EXTT6=
EXTT7=
EXTT8=
EXTT9=
EXTT10=
EXTT11=
EXTT12=
EXTT13=
EXTT14=
PLAYORDER=
